<svg height="2064.7732" viewBox="0 0 2428 2064.7732" width="2428" xmlns="http://www.w3.org/2000/svg" xmlns:xlink="http://www.w3.org/1999/xlink"><clipPath id="a"><path d="m0 1548.579h1821v-1548.579h-1821z"/></clipPath><g clip-path="url(#a)" transform="matrix(1.3333333 0 0 -1.3333333 0 2064.7733)"><path d="m0 0c-287.12 0-518.413-128.441-603.608-335.212-129.817-315.049 112.163-714.597 539.425-890.674 132.007-54.386 272.637-83.135 406.704-83.135 287.118 0 518.406 128.446 603.609 335.214 62.434 151.493 41.455 327.208-59.071 494.77-101.724 169.579-272.324 310.182-480.357 395.907-132 54.384-272.642 83.13-406.702 83.13m342.521-1351.672c-139.59 0-285.84 29.859-422.956 86.359-216.457 89.196-394.271 236.021-500.681 413.394-107.626 179.412-129.62 368.689-61.927 532.961 91.914 223.049 338.307 361.611 643.043 361.611 139.591 0 285.849-29.86 422.956-86.356 216.455-89.188 394.264-236.01 500.688-413.396 107.62-179.411 129.613-368.691 61.914-532.962-91.903-223.048-338.307-361.611-643.037-361.611" fill="#f49825" transform="translate(721.4014 1422.3042)"/><path d="m0 0c-287.119 0-518.407-128.459-603.61-335.212-62.43-151.495-41.455-327.207 59.065-494.771 101.73-169.577 272.319-310.181 480.353-395.903 132.008-54.402 272.639-83.151 406.706-83.151 287.111 0 518.404 128.445 603.609 335.226 129.824 315.049-112.164 714.597-539.421 890.663-131.998 54.399-272.638 83.148-406.702 83.148m342.514-1351.687c-139.596 0-285.842 29.859-422.956 86.356-216.451 89.202-394.259 236.009-500.682 413.41-107.627 179.412-129.61 368.675-61.923 532.959 91.915 223.051 338.319 361.615 643.047 361.615 139.594 0 285.846-29.874 422.954-86.374 216.448-89.184 394.257-236.007 500.682-413.394 107.62-179.413 129.614-368.674 61.926-532.96-91.914-223.05-338.321-361.612-643.048-361.612" fill="#0672b3" transform="translate(756.0117 1412.3574)"/><path d="m0 0c-11.951 3.011-23.921 5.701-35.586 7.994-23.773 4.627-35.842 12.776-35.842 24.188v17.151c0 18.759 7.735 27.118 25.071 27.118h35.34c17.575 0 25.413-8.149 25.413-26.426v-8.584c0-6.853 4.792-11.652 11.646-11.652h9.955c6.853 0 11.644 4.799 11.644 11.652v9.61c0 17.168-5.163 31.041-15.351 41.243-10.187 10.175-23.951 15.342-40.893 15.342h-39.809c-16.964 0-30.724-5.167-40.913-15.342-10.174-10.188-15.331-24.061-15.331-41.243v-18.869c0-14.648 5.044-26.554 14.994-35.39 9.175-8.163 20.43-13.847 33.464-16.884 11.732-2.746 23.609-5.406 35.288-7.923 10.581-2.294 19.673-6.025 27.024-11.119 6.038-4.194 8.973-9.835 8.973-17.222v-14.396c0-18.533-7.837-26.805-25.416-26.805h-35.682c-17.578 0-25.417 8.16-25.417 26.466v11.298c0 6.871-4.78 11.654-11.634 11.654h-9.95c-6.861 0-11.644-4.783-11.644-11.654v-12.336c0-17.195 5.157-31.072 15.344-41.244 10.176-10.188 23.936-15.355 40.9-15.355h40.492c16.948 0 30.704 5.167 40.898 15.337 10.181 10.19 15.344 24.067 15.344 41.262v16.8c0 15.449-4.985 28.002-14.815 37.288-9.189 8.684-20.462 14.762-33.507 18.041" fill="#f49825" transform="translate(333.8955 917.4043)"/><path d="m0 0h-13.377c-8.608 0-15.191 2.151-19.603 6.4-4.315 4.136-6.502 10.429-6.502 18.69v103.282h36.043c6.861 0 11.661 4.66 11.661 11.299v8.25c0 6.852-4.8 11.636-11.661 11.636h-36.043v23.021c0 7.049-4.785 11.987-11.637 11.987h-9.959c-6.858 0-11.64-4.938-11.64-11.987v-23.021h-16.147c-6.848 0-11.646-4.784-11.646-11.636v-8.25c0-6.639 4.798-11.299 11.646-11.299h16.147v-103.975c0-17.096 5.473-30.83 16.25-40.779 10.597-9.806 24.624-14.789 41.709-14.789h14.759c6.853 0 11.654 4.8 11.654 11.652v7.895c0 6.837-4.801 11.624-11.654 11.624" fill="#0672b3" transform="translate(498.9541 819.8477)"/><path d="m0 0c13.453 0 23.022 3.21 29.838 7.684 1.543-4.673 5.636-7.684 10.985-7.684h9.955c6.648 0 11.299 4.924 11.299 11.991v166.762c0 7.05-4.651 11.975-11.299 11.975h-9.955c-6.852 0-11.638-4.925-11.638-11.975v-121.819c0-8.413-2.336-14.844-6.923-19.111-4.756-4.403-11.68-6.652-20.549-6.652h-22.314c-8.189 0-14.317 2.151-18.237 6.4-4.064 4.419-6.135 11.047-6.135 19.715v121.467c0 7.05-4.791 11.975-11.651 11.975h-9.948c-6.655 0-11.3-4.925-11.3-11.975v-122.154c0-17.157 5.022-31.002 14.931-41.175 9.946-10.231 23.508-15.424 40.294-15.424z" fill="#0672b3" transform="translate(606.4062 788.6768)"/><path d="m0 0h-22.991c-8.194 0-14.311 2.151-18.236 6.4-4.085 4.419-6.149 11.047-6.149 19.715v76.17c0 8.654 2.064 15.281 6.159 19.713 3.915 4.236 10.032 6.374 18.226 6.374h22.991c8.881 0 15.788-2.225 20.558-6.64 4.587-4.264 6.924-10.697 6.924-19.112v-76.857c0-8.413-2.337-14.844-6.929-19.111-4.765-4.403-11.672-6.652-20.553-6.652m28.053-23.291c1.441-4.783 5.452-7.88 10.716-7.88h9.96c6.853 0 11.638 4.924 11.638 11.991v232.98c0 7.053-4.785 11.978-11.638 11.978h-9.96c-6.642 0-11.287-4.925-11.287-11.978v-61.758c-6.878 4.391-16.4 7.515-29.544 7.515h-22.984c-16.774 0-30.34-5.177-40.294-15.409-9.9-10.175-14.923-24.022-14.923-41.173v-77.547c0-17.169 5.023-31.016 14.923-41.19 9.963-10.216 23.52-15.409 40.294-15.409h22.984c13.517 0 23.197 3.307 30.115 7.88" fill="#0672b3" transform="translate(776.6309 819.8477)"/><path d="m0 0c.675 1.631 2.751 6.644 64.169 186.462.068.198.123.383.166.592 1.225 4.798-.244 8.023-1.688 9.865-1.169 1.504-3.906 4.038-9.022 4.038h-10.283c-5.799 0-10.364-3.703-11.998-9.698l-43.584-127.218-43.588 127.191c-1.64 6.011-6.214 9.725-12.011 9.725h-10.632c-5.241 0-7.934-2.645-9.11-4.263-1.393-1.944-2.732-5.32-1.077-10.3l54.466-157.181c1.195-4.378 4.009-7.529 7.767-8.92-1.203-2.985-2.535-6.065-3.984-9.261-.049-.126-.106-.252-.155-.379-.521-1.351-2.038-4.549-6.332-10.708-2.758-3.955-5.843-6.642-9.187-8.008-3.83-1.549-8.732-2.335-14.553-2.335h-9.256c-6.853 0-11.639-4.787-11.639-11.653v-8.217c0-6.866 4.786-11.652 11.639-11.652h12.693c20.755 0 37.042 8.246 47.102 23.853 4.821 7.458 8.212 13.522 10.097 18.067" fill="#0672b3" transform="translate(941.6201 778.4473)"/><path d="m0 0h-60.222l29.978 96.726zm58.189-75.55-68.294 212.479c-1.951 5.77-6.411 9.233-11.927 9.233h-16.125c-5.847 0-10.434-3.645-12.019-9.513l-68.196-212.129c-1.607-4.828-.322-8.106 1.041-9.992 1.084-1.491 3.617-4.011 8.494-4.011h10.631c5.317 0 9.649 3.462 11.578 9.232l16.803 49.784h79.11l16.73-49.547c1.59-5.838 6.024-9.469 11.652-9.469h10.99c4.517 0 7.007 2.337 8.093 3.717 1.385 1.787 2.793 4.925 1.581 9.75-.035.142-.078.31-.142.466" fill="#f49825" transform="translate(674.6143 563.5469)"/><path d="m0 0h22.643c8.469 0 14.612-2.097 18.785-6.43 4.187-4.362 6.319-10.977 6.319-19.672v-79.267c0-8.919-2.132-15.66-6.319-20.007-4.173-4.336-10.316-6.445-18.785-6.445h-50.478v105.719c0 8.655 2.312 14.987 7.036 19.377 4.899 4.533 11.695 6.725 20.799 6.725m24.357 30.467h-22.642c-11.986 0-21.865-2.563-29.55-7.656v59.51c0 6.838-4.642 11.622-11.269 11.622h-9.965c-6.442 0-10.948-4.784-10.948-11.622v-232.969c0-6.853 4.506-11.64 10.948-11.64h73.426c16.893 0 30.524 5.152 40.514 15.281 9.977 10.092 15.035 23.88 15.035 40.965v80.628c0 16.846-5.058 30.494-15.03 40.6-9.995 10.143-23.626 15.281-40.519 15.281" fill="#0672b3" transform="translate(814.1875 636.3516)"/><path d="m0 0v8.231c0 6.639-4.637 11.285-11.278 11.285h-13.375c-10.707 0-19.953-2.251-27.496-6.699-1.28-.761-2.504-1.534-3.664-2.334-1.014 5.428-5.278 9.033-11.047 9.033h-9.956c-6.446 0-10.933-4.784-10.933-11.622v-166.748c0-6.853 4.487-11.64 10.933-11.64h9.956c6.648 0 11.278 4.787 11.278 11.64v117.33c0 9.818 2.449 17.264 7.471 22.723 4.842 5.29 11.61 7.867 20.708 7.867h15.836c.31-.028.621-.028.916-.028 6.269 0 10.651 4.502 10.651 10.962" fill="#0672b3" transform="translate(1014.8623 644.5576)"/><path d="m0 0v76.845c0 8.739 2.08 15.365 6.205 19.741 4.038 4.308 10.103 6.391 18.531 6.391h26.766c8.47 0 14.605-2.112 18.777-6.46 4.195-4.362 6.319-10.977 6.319-19.672v-76.845c0-8.812-2.069-15.253-6.324-19.687-4.161-4.321-10.302-6.43-18.772-6.43h-26.766c-8.428 0-14.502 2.083-18.531 6.373-4.116 4.376-6.205 11.019-6.205 19.744m23.373-56.584h29.5c16.881 0 30.551 5.138 40.66 15.24 10.112 10.105 15.233 23.907 15.233 41.006v77.533c0 17.083-5.121 30.875-15.233 40.991-10.119 10.118-23.797 15.24-40.66 15.24h-29.5c-16.889 0-30.518-5.136-40.514-15.267-9.976-10.103-15.035-23.894-15.035-40.964v-77.533c0-17.085 5.059-30.873 15.035-40.965 9.992-10.129 23.625-15.281 40.514-15.281" fill="#0672b3" transform="translate(1063.2422 530.6475)"/><path d="m0 0h-22.295c-8.417 0-14.466 2.109-18.518 6.5-4.139 4.488-6.236 11.203-6.236 19.952v76.172c0 8.881 2.042 15.409 6.25 19.968 4.029 4.36 10.074 6.502 18.504 6.502h50.121v-102.977c0-8.655-2.299-14.987-7.023-19.378-4.895-4.545-11.703-6.739-20.803-6.739m60.01 147.921c0 6.839-4.502 11.622-10.941 11.622h-72.745c-16.886 0-30.504-5.136-40.511-15.267-9.977-10.089-15.028-23.88-15.028-40.963v-77.534c0-17.098 5.051-30.873 15.028-40.965 9.99-10.128 23.625-15.281 40.511-15.281h21.952c12.372 0 22.432 2.617 30.085 7.798 1.409-4.728 5.44-7.798 10.758-7.798h9.95c6.439 0 10.941 4.787 10.941 11.64z" fill="#0672b3" transform="translate(1280.4707 504.5303)"/><path d="m0 0h-22.992c-8.401 0-14.451 2.109-18.49 6.5-4.135 4.488-6.248 11.203-6.248 19.952v76.172c0 8.881 2.054 15.409 6.263 19.968 4.024 4.36 10.074 6.502 18.475 6.502h22.992c9.105 0 15.903-2.21 20.814-6.77 4.743-4.378 7.036-10.71 7.036-19.362v-76.845c0-8.655-2.308-14.987-7.049-19.378-4.898-4.545-11.696-6.739-20.801-6.739m-2.055-30.467c12.399 0 22.56 2.691 30.367 8.007 1.296-4.839 5.235-8.007 10.471-8.007h9.95c6.638 0 11.285 4.787 11.285 11.64v232.97c0 6.837-4.647 11.622-11.285 11.622h-9.95c-6.445 0-10.933-4.785-10.933-11.622v-62.297c-7.752 5.122-17.746 7.697-29.905 7.697h-22.99c-16.662 0-30.143-5.163-40.019-15.296-9.852-10.118-14.834-23.88-14.834-40.934v-77.534c0-17.07 4.982-30.832 14.82-40.932 9.89-10.148 23.359-15.314 40.033-15.314z" fill="#0672b3" transform="translate(1453.3887 504.5303)"/><path d="m0 0h15.087c2.933 0 3.853-.972 4.166-1.293.885-.943 1.335-2.534 1.335-4.714v-11.778c0-2.111-.45-3.659-1.354-4.604-.294-.322-1.208-1.306-4.147-1.306h-15.087zm15.492 13.286h-23.948c-3.094 0-5.332-2.338-5.332-5.546v-64.476c0-3.207 2.238-5.545 5.332-5.545h3.025c3.151 0 5.431 2.338 5.431 5.545v19.672h15.492c5.681 0 10.318 1.745 13.777 5.207 3.461 3.461 5.207 8.133 5.207 13.875v12.171c0 5.743-1.746 10.413-5.207 13.875-3.459 3.463-8.096 5.222-13.777 5.222" fill="#f49825" transform="translate(871.8389 418.1016)"/><g fill="#0672b3"><path d="m0 0v-36.981c0-2.166-.457-3.744-1.352-4.671-.323-.339-1.292-1.352-4.249-1.352h-11.87c-2.919 0-3.833 1.001-4.151 1.337-.9.971-1.357 2.547-1.357 4.686v36.981c0 2.138.457 3.714 1.366 4.685.294.336 1.223 1.322 4.142 1.322h11.87c2.957 0 3.926-1 4.241-1.322.903-.943 1.36-2.519 1.36-4.685m-5.079 19.293h-12.82c-5.669 0-10.292-1.776-13.729-5.25-3.403-3.462-5.134-8.12-5.134-13.847v-37.388c0-5.729 1.731-10.385 5.144-13.833 3.431-3.492 8.055-5.249 13.719-5.249h12.82c5.678 0 10.299 1.757 13.725 5.249 3.412 3.434 5.152 8.104 5.152 13.833v37.388c0 5.727-1.731 10.385-5.145 13.847-3.418 3.474-8.041 5.25-13.732 5.25" transform="translate(960.8564 412.0947)"/><path d="m0 0h14.783c2.955 0 3.968-1.041 4.291-1.379.957-.983 1.406-2.505 1.406-4.628v-9.78c0-2.098-.457-3.633-1.376-4.561-.332-.337-1.337-1.364-4.321-1.364h-14.783zm24.687-32.604c2.225 1.127 4.125 2.69 5.688 4.66 2.59 3.262 3.896 7.373 3.896 12.242v9.891c0 5.743-1.744 10.399-5.207 13.875-3.459 3.463-8.089 5.222-13.759 5.222h-23.762c-3.089 0-5.316-2.338-5.316-5.546v-64.476c0-3.207 2.227-5.545 5.316-5.545h3.02c3.15 0 5.437 2.338 5.437 5.545v21.951h10.483l11.07-23.625c1.023-2.419 3.208-3.871 5.826-3.871h3.221c2.763 0 4.066 1.635 4.503 2.338.548.873 1.28 2.7.126 5.035z" transform="translate(1009.0156 418.1016)"/><path d="m0 0h-37.5c-3.203 0-5.531-2.298-5.531-5.433v-2.406c0-3.153 2.328-5.447 5.531-5.447h11.861v-56.736c0-3.207 2.28-5.545 5.432-5.545h3.029c3.086 0 5.33 2.338 5.33 5.545v56.736h11.848c3.211 0 5.545 2.294 5.545 5.447v2.406c0 3.135-2.334 5.433-5.545 5.433" transform="translate(1099.4043 431.3877)"/><path d="m0 0h-2.914c-3.152 0-5.446-2.338-5.446-5.546v-50.728c0-2.166-.453-3.744-1.352-4.671-.315-.339-1.289-1.352-4.249-1.352h-10.727c-2.907 0-3.823 1.001-4.145 1.337-.903.971-1.352 2.547-1.352 4.686v50.728c0 3.208-2.279 5.546-5.432 5.546h-3.025c-3.088 0-5.335-2.338-5.335-5.546v-50.939c0-5.743 1.733-10.399 5.139-13.833 3.418-3.492 8.046-5.249 13.734-5.249h11.672c5.679 0 10.293 1.757 13.711 5.249 3.42 3.448 5.166 8.104 5.166 13.833v51.052c0 3.135-2.293 5.433-5.445 5.433" transform="translate(1163.0527 431.3877)"/><path d="m0 0h-11.356c-5.684 0-10.298-1.776-13.735-5.25-3.404-3.462-5.134-8.12-5.134-13.847v-37.388c0-5.729 1.738-10.385 5.134-13.833 3.437-3.492 8.056-5.249 13.735-5.249h11.356c5.671 0 10.308 1.757 13.762 5.22 3.462 3.449 5.221 8.106 5.221 13.862v17.506c0 3.742-2.589 6.36-6.277 6.36h-16.238c-3.151 0-5.445-2.28-5.445-5.433v-2.392c0-3.153 2.294-5.432 5.445-5.432h8.626v-10.398c0-2.181-.45-3.772-1.357-4.715-.811-.873-2.202-1.308-4.146-1.308h-10.523c-2.915 0-3.837 1.001-4.153 1.337-.894.971-1.338 2.547-1.338 4.686v36.981c0 2.151.452 3.714 1.352 4.685.297.322 1.224 1.322 4.139 1.322h10.523c1.944 0 3.335-.421 4.16-1.293.893-.943 1.343-2.548 1.343-4.714v-4.476c0-3.222 2.281-5.543 5.419-5.543h3.038c3.143 0 5.432 2.321 5.432 5.543v4.672c0 5.743-1.759 10.412-5.212 13.875-3.456 3.463-8.086 5.222-13.771 5.222" transform="translate(1218.7744 431.3877)"/><path d="m0 0 6.367 20.586 6.446-20.586zm35.136-24.332-20.747 64.491c-.845 2.604-2.956 4.225-5.518 4.225h-4.911c-2.665 0-4.839-1.704-5.569-4.336l-20.674-64.307c-.803-2.407.014-4.081.576-4.869.945-1.309 2.473-2.056 4.217-2.056h3.236c1.947 0 4.383 1.1 5.41 4.165l4.643 13.762h21.123l4.599-13.634c.735-2.618 2.859-4.293 5.46-4.293h3.333c1.623 0 3.098.704 4.041 1.901.579.73 1.444 2.307.859 4.672-.02.097-.048.183-.078.279" transform="translate(1275.0117 387.0039)"/><path d="m0 0h-24.66v56.54c0 3.208-2.286 5.546-5.451 5.546h-3.006c-3.088 0-5.34-2.338-5.34-5.546v-64.477c0-3.207 2.252-5.544 5.34-5.544h33.117c3.211 0 5.545 2.293 5.545 5.431v2.617c0 3.139-2.334 5.433-5.545 5.433" transform="translate(1364.6953 369.3018)"/></g><path d="m0 0c7.312 5.136 15.768 11.089 24.156 17.042.723-.928 1.453-1.872 2.187-2.843l.554-.731c2.983-3.883 6.677-8.739 10.486-13.257 8.308-9.891 17.82-18.431 28.246-25.383 1.036-.705 1.069-1.087 1.041-1.689-.026-.832-.005-1.69.037-2.675l.035-.954c-.458-7.558-2.301-12.667-6.002-16.537-5.334-5.557-12.573-7.85-21.347-6.794-11.833 1.434-23.14 6.838-35.553 16.981-.004 0-.406.438-.809 1.999-2.855 11.118-9.004 20.207-14.21 26.975zm-26.631-18.729c4.576-7.612 10.555-14.675 18.208-21.543 1.761-1.563 2.732-3.348 2.169-7.458-.789-5.767-2.913-9.062-6.884-10.723-1.745-.718-3.783-1.11-5.738-1.489-.206-.043-.579-.057-1.042-.057l-1.296.042c-7.141.237-13.323 3.615-18.448 6.894-5.923 3.786-11.171 8.57-15.598 14.253 9.76 6.784 19.453 13.624 28.629 20.081m-54.639 37.26-.282 1.536c4.843.845 9.887.336 16.794-1.718 7.752-2.265 15.414-6.161 23.429-11.932.739-.521 1.219-1.081 1.443-1.478 1.849-3.138 3.674-6.36 5.423-9.469l2.654-4.687-29.514-20.726c-.346.604-.685 1.208-1.028 1.815l-.985 1.731c-2.391 4.194-4.861 8.542-7.225 13.085-3.808 7.235-6.851 15.212-9.041 23.767-.697 2.662-1.205 5.446-1.668 8.076m4.04 12.554c-1.733 0-3.477-.196-5.158-.438.174 15.199 4.706 25.81 14.182 33.294 1.689 1.354 3.794 2.491 5.797 3.533.186-.955.359-1.928.534-2.884l.27-1.45c1.027-5.741 1.991-10.904 3.371-16.041 1.998-7.403 4.797-15 8.54-23.106-9.906 4.813-18.558 7.02-27.536 7.092m117.283 111.011c-6.5 2.434-14.198 4.994-22.302 5.952-5.692.661-11.581.997-16.323 1.281-.828.083-2.869.196-4.489.109-.24-.01-.484-.026-.716-.037.041.183.084.375.126.558.555 2.563 1.254 5.729 2.202 8.516 3.041 8.807 7.564 16.421 13.429 22.642 5.067 5.362 11.12 9.708 18.42 13.226l.362-3.938c.611-6.757 1.244-13.748 2.313-20.701.839-5.528 2.301-10.933 3.716-16.167l.978-3.546c.696-2.675 1.512-5.391 2.284-7.895m118.134 36.444c-14.312 9.626-28.087 17.028-42.117 22.628-18.8 7.46-35.863 11.088-52.145 11.088h-.018l-1.358-.013c-7.354-.097-14.559-1.056-21.467-2.828.113 1.759.246 3.434.522 5.024l.351 2.166c.831 5.025 1.693 10.203 3.111 15.041 4.86 16.692 13.705 29.973 26.255 39.488 8.255 6.247 17.648 10.708 28.714 13.648 13.468 3.576 27.571 4.363 41.982 2.364 8.934-1.253 17.688-3.182 25.989-5.713 10.402-3.236 20.674-7.346 31.41-12.622 13.439-6.602 26.849-14.634 39.865-23.908 14.03-9.961 27.735-21.6 40.793-34.617l-79.709-56.019c-2.102-1.461-4.27-2.969-6.4-4.53-11.349 10.766-23.375 20.447-35.778 28.803m-74.708-119.692.853.607 4.326-5.601c5.994-7.826 10.998-14.326 16.141-20.769 12.707-16.043 27.418-29.384 43.705-39.654.086-.055.163-.114.213-.157 0 0-.014-.098-.03-.168-2.66-12.357-9.175-20.152-19.933-23.825-5.556-1.854-11.483-2.065-13.291-2.137-9.059.421-17.361 2.49-25.41 6.291-4.532 2.137-9.022 4.628-13.581 7.205-1.714 9.146-5.179 18.219-10.588 27.734-4.933 8.611-11.082 17.097-18.25 25.201 11.952 8.401 23.794 16.761 35.845 25.273m-125.686 13.496c9.131-.845 16.126-1.914 22.604-4.587 6.48-2.673 13.167-5.825 18.927-8.557.184-.1.662-.575.879-1.069 4.975-11.201 10.836-22.149 17.42-32.619-11.719-8.132-23.154-16.154-35.881-25.174-1.449 1.366-2.947 2.731-4.405 4.04l-.575.533c-2.656 2.391-5.475 4.94-8.008 7.529-1.35 1.35-2.588 3.335-3.799 6.091l-1.935 4.377c-3.189 7.162-6.813 15.284-9.71 23.179-2.835 7.767-4.692 16.096-5.537 24.764 3.196.452 7.092 1.027 10.02 1.493m36.274 54.204c.036.378.074.772.036 1.408l.206 3.981c.063 2.151.12 4.291.16 6.459 5.84.829 11.814.688 19.27-.408 6.925-1.013 14.03-2.841 21.724-5.59 3.183-1.107 6.28-2.249 9.123-3.728.105-.083.52-.59.928-1.659 6.529-16.816 15.07-33.574 26.082-51.237 1.654-2.701 3.674-5.089 5.446-7.201l.634-.761c-10.9-7.598-23.156-16.224-37.472-26.329-9.155 9.175-19.475 17.379-31.536 25.048-.76.48-1.753 3.139-2.189 4.32l-1.155 3.169c-2.151 5.908-4.373 12.029-5.967 18.11-2.009 7.795-3.349 15.856-4.373 22.752-.564 3.616-.761 7.543-.936 10.722-.021.452 0 .675.019.944m82.755 74.169c6.916-1.042 12.16-2.094 17-3.419 5.993-1.661 12.284-3.782 18.689-6.331 10.762-4.278 21.618-9.906 33.191-17.183 13.757-8.653 26.978-18.869 39.332-30.378-19.165-13.495-38.29-26.948-57.44-40.414l-14.276-10.048c-.884.83-1.744 1.661-2.603 2.493-2.876 2.755-6.128 5.865-9.491 8.846-14.775 13.216-30.831 24.08-47.561 32.155-.108.099-.464.537-.689 1.167-4.701 12.921-7.636 23.53-9.234 33.379-.963 5.87-1.539 11.951-2.088 17.845l-.176 1.955c-.226 2.476-.449 4.952-.704 7.428 11.779 3.449 24.119 4.249 36.05 2.505m65.175-189.57c-13.179 10.257-25.013 22.724-35.173 37.062-3.7 5.235-7.775 10.216-11.715 15.029l-1.95 2.394c5.47 3.811 11.428 8.005 18.591 13.113 13.545-15.279 23.371-29.972 30.021-44.874 4.299-9.652 7.006-19.937 7.358-27.945-2.531 1.786-4.867 3.459-7.132 5.221m-37.678 75.465-1.16-.814c-5.057-3.576-10.138-7.164-15.374-10.836l-1.355-.96c-11.914 15.101-20.385 32.815-26.815 47.156 16.125-9.259 31.141-20.841 44.704-34.546m-44.551-93.802c-9.315 8.037-17.413 17.223-24.096 27.312-.809 1.224-1.717 2.254-2.581 3.183 2.038 1.391 3.979 2.799 5.739 4.081 11.344-12.932 18.899-24.682 23.733-36.911-.95.759-1.893 1.547-2.795 2.335m-28.522 42.299c-.548-.379-1.092-.761-1.632-1.138l-3.252-2.223c-2.938 5.12-5.614 9.819-8.091 14.254 4.569-3.799 8.868-7.401 12.975-10.893m123.69-5.542c-6.543 18.503-17.168 35.613-34.365 55.343.423.322.845.633 1.269.927l9.764 6.868c19.785 13.903 40.724 28.592 61.255 43.101 18.209-18.489 32.266-37.403 43.003-57.764 4.529-8.609 8.064-17.658 10.509-26.875 2.984-11.329 3.856-20.758 2.744-29.693-1.94-15.675-8.766-26.23-20.867-32.251-8.385-4.166-17.828-5.757-27.819-4.659-12.412 1.38-25.068 5.797-39.839 13.947-.52.294-.615.435-.615.435s-.059.14-.045.689c.409 9.484-1.224 19.279-4.994 29.932m-171.436 94.205c.606-7.863 1.69-15.488 2.659-21.935 1.452-9.624 4.519-18.784 7.55-27.68-9.737 4.421-19.939 7.246-30.352 8.389-1.85.196-3.664.292-5.41.292-3.517 0-7.099-.349-10.891-1.067-.021 9.427 1.344 17.588 4.144 24.878 5.099 13.229 14.15 22.487 26.863 27.526 1.808.703 3.723 1.347 5.593 1.955-.013-.251-.027-.506-.042-.772l-.042-1.001c-.154-3.266-.323-6.952-.072-10.585m-67.895-132.679c3.645-8.891 8.359-17.786 14.43-27.171-3.103-2.055-6.178-4.279-8.905-6.263l-2.138-1.549c-.705-.506-1.346-1.041-1.851-1.463-.214-.181-.689-.492-1.127-.771-.649.338-1.422.731-2.321.969-.804.224-1.605.309-2.267.352-.322.845-.703 1.69-1.056 2.28-4.919 8.159-8.272 15.633-10.243 22.838-2.666 9.708-2.913 17.127-.802 24.021 1.64 5.305 4.609 9.356 8.872 12.073.078-.409.162-.816.225-1.223 1.273-7.545 3.553-15.199 7.183-24.093m154.774-43.338c4.208 5.444 6.488 11.973 6.924 19.868 8.085-4.376 15.929-7.415 23.906-9.259 11.793-2.716 21.166-2.505 30.748.689 13.508 4.558 22.316 13.929 26.172 27.806.072.211.127.407.183.619l1.083-.535c3.746-1.858 7.628-3.787 11.709-5.53 9.525-4.025 19.05-6.559 28.297-7.5 14.966-1.479 28.201 1.535 39.079 8.85 12.282 8.26 19.416 20.87 21.245 37.444 1.621 14.593-.801 30.029-7.371 47.226-4.742 12.426-11.457 24.835-20.503 37.993-8.822 12.791-18.913 25.116-30.029 36.642l9.745 6.882c1.745 1.224 3.483 2.461 5.236 3.686l8.689 6.123c20.375 14.308 41.41 29.11 62.137 43.73 17.087-18.361 30.693-36.655 41.528-55.863 11.284-19.994 17.517-37.669 19.628-55.639 1.789-15.126.381-27.144-4.445-37.824-.395-.844-.801-1.674-1.267-2.517l-.17.674c-.62 2.449-1.293 5.052-2.04 7.739-.59 1.915-2.999 4.166-5.374 3.841l-.534-.069c-.143-.03-.284-.068-.412-.099-1.42-.521-2.559-1.577-3.641-3.378-.873-1.576-.452-3.08-.142-4.166l1.549-5.683c.997-3.631 2.166-7.865 3.207-12.016l.142-.579c.322-1.365 1.179-5.022 4.981-5.022.927 0 1.871.267 2.955.8.772.014 1.181-.012 1.672-.027.58-.014 1.224-.042 2.591-.042l6.784.057c1.041 0 2.617.012 3.924 1.334 1.407 1.507 2.112 2.93 2.197 4.477.013.142 0 .266-.018.393l-.067.51c-.015.095-.029.209-.057.306-.62 2.17-3.193 3.715-5.165 3.761-1.069 0-2.518-.019-4.066-.046 4.545 7.994 7.359 16.93 8.359 26.625 1.549 15.279-.479 31.098-6.163 48.363-4.066 12.382-9.823 24.825-17.068 36.996-10.937 18.475-24.359 36.332-40.034 53.289 8.906 6.258 17.813 12.521 26.734 18.812l9.175 6.443c.028-.618.155-1.306.492-1.994.436-.888 1.367-2.044 3.294-2.647.619-.17 1.166-.254 1.715-.254 1.634 0 3.841.691 5.138 4.009.604 1.551 1.266 3.097 1.914 4.602l1.125 2.66c.434 1.057.9 2.098 1.307 3.139.635 1.504 1.238 3.012 1.789 4.391.322.675 1.125 2.404 1.59 4.039.463 1.644-.565 3.262-2.676 3.938-.955.255-6.23.42-6.684.42-1.982-.026-3.193-.096-4.712-.182l-1.83-.096c-1.28-.069-2.604-.142-3.883-.184-1.676-.069-3.11-.761-4.038-2.014-.913-1.224-1.198-2.841-.775-4.57.422-1.533 1.858-3.223 3.702-3.844l-9.597-6.74c-10.244-7.205-20.829-14.647-31.309-22.09-13.368 13.69-28.173 26.313-44.004 37.556-16.813 11.946-31.596 20.517-46.526 26.988-8.168 3.52-17.709 7.543-27.504 10.569-6.108 1.868-12.157 3.376-17.981 4.518-2.562.493-9.056 1.589-10.289 1.785-5.261.86-10.693 1.281-16.154 1.281-2.941 0-5.135-.126-6.445-.197l-.335-.028c-1.803-.11-7.756-.969-12.421-1.704l-.289-.026c-11.692-1.842-22.591-5.603-32.414-11.189-21.201-12.015-35.031-30.912-41.108-56.174-1.38-5.812-1.955-11.733-2.52-17.573l-.251-2.504c-.128-1.31-.263-2.603-.408-3.872-5.926-2.249-11.581-5.359-16.794-9.229-12.391-9.164-21.034-21.518-25.675-36.686-.606-2-1.069-3.955-1.576-6.121l-.347-1.491c-.358-1.563-.737-3.169-1.16-4.645-.028-.068-.112-.183-.183-.265-1.841-.691-3.742-1.311-5.515-1.901-3.053-.971-6.502-2.082-9.828-3.714-15.879-7.867-26.273-21.572-30.873-40.712-1.909-7.919-2.015-15.787-1.865-22.427-5.91-2.156-11.175-5.59-15.678-10.203-9.877-10.118-14.295-22.963-13.887-40.469v-.266c-.057-.029-.107-.058-.17-.087-7.923-3.504-13.537-9.416-16.695-17.547-.471-1.211-.958-2.42-1.485-3.673-.146-.379-.986-3.066-1.379-6.921-.773-7.627.451-13.738.485-13.905.324-1.195.625-2.377.894-3.589 1.863-7.876 4.336-14.718 7.556-20.896 1.619-3.139 3.349-6.164 4.966-9.005l.874-1.507c-2.756-3.546-3.308-9.033-1.146-12.816 2.287-3.9 5.861-6.04 10.08-6.04 1.408 0 2.867.256 4.323.76 4.853 1.704 7.921 6.925 7.416 12.441 2.039 1.562 4.289 3.237 7.007 5.221l1.069.803c1.773 1.306 3.554 2.631 5.291 3.953 5.799-7.43 12.426-13.454 19.722-17.956 8.603-5.277 16.37-7.752 24.405-7.752 1.288 0 2.578.069 3.842.196 9.307.955 17.505 8.16 19.49 17.138.224 1.027.422 2.042.618 3.11.662-.407 1.315-.816 1.972-1.225l.689-.421c3.798-2.337 7.709-4.727 11.807-6.754 10.974-5.374 20.961-7.164 31.04-5.531 8.788 1.45 15.782 5.461 20.784 11.935" fill="#f49825" transform="translate(1148.916 790.0693)"/></g></svg>